<svg width="141" height="32" viewBox="0 0 141 32" fill="none" xmlns="http://www.w3.org/2000/svg">
<path d="M2.628 31.284C2.052 31.284 1.632 31.152 1.368 30.888C1.104 30.624 0.972 30.204 0.972 29.628V25.416C0.972 25.104 1.008 24.84 1.08 24.624C1.176 24.408 1.308 24.228 1.476 24.084L5.076 21.06C3.804 20.676 2.796 20.028 2.052 19.116C1.332 18.18 0.972 16.848 0.972 15.12V11.34C0.972 10.26 1.152 9.3 1.512 8.46C1.872 7.62 2.388 6.912 3.06 6.336L7.74 2.412C8.388 1.884 9.192 1.476 10.152 1.188C11.112 0.875999 12.204 0.719999 13.428 0.719999H23.508C24.084 0.719999 24.504 0.851999 24.768 1.116C25.032 1.38 25.164 1.8 25.164 2.376V6.66C25.164 6.972 25.116 7.236 25.02 7.452C24.948 7.668 24.828 7.848 24.66 7.992L21.42 10.692C22.932 11.028 24.144 11.664 25.056 12.6C25.992 13.512 26.46 14.94 26.46 16.884V20.664C26.46 21.744 26.28 22.704 25.92 23.544C25.56 24.384 25.032 25.092 24.336 25.668L19.692 29.556C19.02 30.108 18.204 30.528 17.244 30.816C16.284 31.128 15.204 31.284 14.004 31.284H2.628ZM18.648 27C20.952 27 22.764 26.46 24.084 25.38C25.428 24.276 26.1 22.704 26.1 20.664V16.884C26.1 14.868 25.584 13.428 24.552 12.564C23.52 11.7 22.164 11.148 20.484 10.908L15.12 10.188C14.808 10.164 14.568 10.044 14.4 9.828C14.232 9.612 14.148 9.348 14.148 9.036C14.148 8.724 14.232 8.472 14.4 8.28C14.568 8.064 14.808 7.956 15.12 7.956H23.508C23.964 7.956 24.288 7.86 24.48 7.668C24.696 7.452 24.804 7.116 24.804 6.66V2.376C24.804 1.92 24.696 1.596 24.48 1.404C24.288 1.188 23.964 1.08 23.508 1.08H13.428C11.1 1.08 9.276 1.632 7.956 2.736C6.636 3.816 5.976 5.376 5.976 7.416V11.196C5.976 13.212 6.48 14.652 7.488 15.516C8.52 16.38 9.876 16.932 11.556 17.172L16.956 17.928C17.268 17.952 17.496 18.06 17.64 18.252C17.808 18.444 17.892 18.744 17.892 19.152C17.892 19.44 17.808 19.692 17.64 19.908C17.496 20.1 17.268 20.196 16.956 20.196H7.272C6.816 20.196 6.48 20.304 6.264 20.52C6.072 20.712 5.976 21.036 5.976 21.492V25.704C5.976 26.16 6.072 26.496 6.264 26.712C6.48 26.904 6.816 27 7.272 27H18.648ZM21.564 4.32V4.68H13.572C12.564 4.68 11.76 4.956 11.16 5.508C10.56 6.06 10.26 6.756 10.26 7.596V10.548C10.26 11.388 10.428 11.976 10.764 12.312C11.1 12.648 11.544 12.864 12.096 12.96L19.692 14.508C20.412 14.652 21 14.964 21.456 15.444C21.936 15.924 22.176 16.788 22.176 18.036V20.124C22.176 21.18 21.816 22.056 21.096 22.752C20.376 23.424 19.404 23.76 18.18 23.76H9.216V23.4H18.18C19.284 23.4 20.16 23.1 20.808 22.5C21.48 21.876 21.816 21.084 21.816 20.124V18.036C21.816 16.908 21.612 16.14 21.204 15.732C20.82 15.3 20.292 15.012 19.62 14.868L12.024 13.32C11.4 13.2 10.884 12.96 10.476 12.6C10.092 12.216 9.9 11.532 9.9 10.548V7.596C9.9 6.636 10.236 5.856 10.908 5.256C11.58 4.632 12.468 4.32 13.572 4.32H21.564ZM33.888 30.332H29.548C29.1 30.332 28.7733 30.2293 28.568 30.024C28.3627 29.8187 28.26 29.492 28.26 29.044V10.9C28.26 10.6573 28.288 10.452 28.344 10.284C28.4187 10.116 28.5213 9.976 28.652 9.864L32.264 6.812C32.3573 6.73733 32.4787 6.68133 32.628 6.644C32.796 6.588 32.9733 6.56 33.16 6.56H41.728C43.0533 6.56 44.164 6.7 45.06 6.98C45.956 7.26 46.6653 7.652 47.188 8.156C47.7107 8.66 48.0747 9.26667 48.28 9.976C48.504 10.6853 48.616 11.46 48.616 12.3V15.884C48.616 16.78 48.4853 17.6013 48.224 18.348C47.9813 19.076 47.552 19.7013 46.936 20.224L43.296 23.248C42.8293 23.64 42.2227 23.9667 41.476 24.228C40.748 24.4707 39.852 24.6107 38.788 24.648V25.992C38.788 26.2347 38.7507 26.44 38.676 26.608C38.62 26.776 38.5267 26.916 38.396 27.028L34.756 30.052C34.6813 30.1267 34.56 30.192 34.392 30.248C34.2427 30.304 34.0747 30.332 33.888 30.332ZM37.5 27C37.8547 27 38.1067 26.9253 38.256 26.776C38.424 26.608 38.508 26.3467 38.508 25.992V21.344H41.728C44.2667 21.344 46.0027 20.84 46.936 19.832C47.8693 18.824 48.336 17.508 48.336 15.884V12.3C48.336 10.676 47.8693 9.36 46.936 8.352C46.0027 7.344 44.2667 6.84 41.728 6.84H33.16C32.8053 6.84 32.544 6.924 32.376 7.092C32.2267 7.24133 32.152 7.49333 32.152 7.848V25.992C32.152 26.3467 32.2267 26.608 32.376 26.776C32.544 26.9253 32.8053 27 33.16 27H37.5ZM41.336 18.964H35.568V24.48H35.288V9.36H41.336C42.2133 9.36 42.9227 9.46267 43.464 9.668C44.024 9.85467 44.4533 10.116 44.752 10.452C45.0507 10.788 45.256 11.1893 45.368 11.656C45.48 12.1227 45.536 12.6267 45.536 13.168V15.24C45.536 15.7813 45.48 16.2853 45.368 16.752C45.256 17.2 45.0507 17.592 44.752 17.928C44.4533 18.2453 44.024 18.4973 43.464 18.684C42.9227 18.8707 42.2133 18.964 41.336 18.964ZM35.568 18.684H41.336C42.1573 18.684 42.82 18.6 43.324 18.432C43.8467 18.264 44.248 18.0307 44.528 17.732C44.808 17.4147 44.9947 17.0507 45.088 16.64C45.2 16.2107 45.256 15.744 45.256 15.24V13.168C45.256 12.664 45.2 12.1973 45.088 11.768C44.9947 11.3387 44.808 10.9653 44.528 10.648C44.248 10.3307 43.8467 10.088 43.324 9.92C42.82 9.73333 42.1573 9.64 41.336 9.64H35.568V18.684ZM38.452 12.076H40.972C41.5133 12.076 41.868 12.216 42.036 12.496C42.204 12.776 42.288 13.0933 42.288 13.448V14.932C42.288 15.2867 42.204 15.604 42.036 15.884C41.868 16.164 41.5133 16.304 40.972 16.304H38.452V12.076ZM63.4623 9.64H57.3583V17.732H63.4623C64.6197 17.732 65.3943 17.452 65.7863 16.892C66.1783 16.332 66.3743 15.5387 66.3743 14.512V12.552C66.3743 11.6933 66.1317 10.9933 65.6463 10.452C65.1797 9.91067 64.4517 9.64 63.4623 9.64ZM60.3823 11.88H62.4823C62.9677 11.88 63.2943 12.0107 63.4623 12.272C63.6303 12.5147 63.7143 12.8227 63.7143 13.196V14.148C63.7143 14.5213 63.6303 14.8387 63.4623 15.1C63.2943 15.3427 62.9677 15.464 62.4823 15.464H60.3823V11.88ZM57.3583 24.48H57.0783V9.36H63.4623C64.545 9.36 65.3477 9.668 65.8703 10.284C66.393 10.8813 66.6543 11.6373 66.6543 12.552V14.484C66.6543 15.3427 66.5423 16.052 66.3183 16.612C66.0943 17.1533 65.6463 17.5267 64.9743 17.732H65.2823C66.421 17.732 67.2703 17.9933 67.8303 18.516C68.3903 19.02 68.6703 19.7573 68.6703 20.728V24.48H68.3903V20.728C68.3903 19.8133 68.1383 19.132 67.6343 18.684C67.1303 18.2173 66.3463 17.984 65.2823 17.984H57.3583V24.48ZM59.3743 27C59.729 27 59.981 26.9253 60.1303 26.776C60.2983 26.608 60.3823 26.3467 60.3823 25.992V20.504H64.3023C64.6943 20.504 64.965 20.6067 65.1143 20.812C65.2823 20.9987 65.3663 21.2973 65.3663 21.708V25.992C65.3663 26.3467 65.441 26.608 65.5903 26.776C65.7583 26.9253 66.0197 27 66.3743 27H70.7143C71.069 27 71.321 26.9253 71.4703 26.776C71.6383 26.608 71.7223 26.3467 71.7223 25.992V20.056C71.7223 18.88 71.405 17.9373 70.7703 17.228C70.1543 16.5187 69.3423 16.108 68.3343 15.996C68.913 15.7533 69.3143 15.3613 69.5383 14.82C69.781 14.26 69.9023 13.588 69.9023 12.804V11.516C69.9023 10.1347 69.501 9.01467 68.6983 8.156C67.9143 7.27867 66.477 6.84 64.3863 6.84H55.0623C54.7077 6.84 54.4463 6.924 54.2783 7.092C54.129 7.24133 54.0543 7.49333 54.0543 7.848V25.992C54.0543 26.3467 54.129 26.608 54.2783 26.776C54.4463 26.9253 54.7077 27 55.0623 27H59.3743ZM60.2703 27.028L56.6303 30.052C56.5557 30.1267 56.4343 30.192 56.2663 30.248C56.117 30.304 55.949 30.332 55.7623 30.332H51.4503C51.0023 30.332 50.6757 30.2293 50.4703 30.024C50.265 29.8187 50.1623 29.492 50.1623 29.044V10.9C50.1623 10.6573 50.1903 10.452 50.2463 10.284C50.321 10.116 50.4237 9.976 50.5543 9.864L54.1663 6.812C54.2597 6.73733 54.381 6.68133 54.5303 6.644C54.6983 6.588 54.8757 6.56 55.0623 6.56H64.3863C66.6077 6.56 68.129 7.02667 68.9503 7.96C69.7717 8.87467 70.1823 10.06 70.1823 11.516V12.804C70.1823 13.4947 70.0983 14.1013 69.9303 14.624C69.7623 15.128 69.4917 15.5387 69.1183 15.856H69.0903C69.9677 16.0987 70.6677 16.584 71.1903 17.312C71.7317 18.04 72.0023 18.9547 72.0023 20.056V25.992C72.0023 26.2347 71.965 26.44 71.8903 26.608C71.8343 26.776 71.741 26.916 71.6103 27.028L67.9703 30.052C67.8957 30.1267 67.7743 30.192 67.6063 30.248C67.457 30.304 67.289 30.332 67.1023 30.332H62.7623C62.3143 30.332 61.9877 30.2293 61.7823 30.024C61.577 29.8187 61.4743 29.492 61.4743 29.044V24.76C61.4743 24.4613 61.4183 24.2373 61.3063 24.088C61.1943 23.92 60.989 23.836 60.6903 23.836H60.6623V25.992C60.6623 26.2347 60.625 26.44 60.5503 26.608C60.4943 26.776 60.401 26.916 60.2703 27.028ZM89.5833 28.988C88.9299 29.548 88.0153 29.9773 86.8393 30.276C85.6633 30.5933 84.1513 30.752 82.3033 30.752C80.4739 30.752 78.9713 30.556 77.7953 30.164C76.6379 29.7907 75.7233 29.2867 75.0513 28.652C74.3979 28.0173 73.9406 27.2893 73.6793 26.468C73.4366 25.6467 73.3153 24.7973 73.3153 23.92V15.212C73.3153 14.3533 73.4366 13.56 73.6793 12.832C73.9219 12.0853 74.3606 11.4507 74.9953 10.928L78.6353 7.904C79.2886 7.344 80.1939 6.91467 81.3513 6.616C82.5273 6.29867 84.0486 6.14 85.9153 6.14C87.7446 6.14 89.2379 6.28933 90.3953 6.588C91.5713 6.88667 92.4859 7.30667 93.1393 7.848C93.8113 8.37067 94.2686 9.00533 94.5113 9.752C94.7539 10.48 94.8753 11.2827 94.8753 12.16V21.708C94.8753 22.5667 94.7539 23.36 94.5113 24.088C94.2686 24.816 93.8299 25.4413 93.1953 25.964L89.5833 28.988ZM94.5953 21.708V12.16C94.5953 11.3013 94.4646 10.5267 94.2033 9.836C93.9606 9.12667 93.5126 8.52 92.8593 8.016C92.2246 7.512 91.3379 7.12 90.1993 6.84C89.0793 6.56 87.6513 6.42 85.9153 6.42C84.1793 6.42 82.7419 6.56 81.6033 6.84C80.4646 7.12 79.5686 7.512 78.9153 8.016C78.2806 8.52 77.8326 9.12667 77.5713 9.836C77.3286 10.5267 77.2073 11.3013 77.2073 12.16V21.708C77.2073 22.5667 77.3286 23.3507 77.5713 24.06C77.8326 24.7507 78.2806 25.348 78.9153 25.852C79.5686 26.3373 80.4646 26.72 81.6033 27C82.7419 27.28 84.1793 27.42 85.9153 27.42C87.6513 27.42 89.0793 27.28 90.1993 27C91.3379 26.72 92.2246 26.3373 92.8593 25.852C93.5126 25.348 93.9606 24.7507 94.2033 24.06C94.4646 23.3507 94.5953 22.5667 94.5953 21.708ZM91.5433 21.064C91.5433 22.184 91.1419 23.0987 90.3393 23.808C89.5366 24.4987 88.0433 24.844 85.8593 24.844C83.6753 24.844 82.1913 24.4987 81.4073 23.808C80.6233 23.0987 80.2313 22.184 80.2313 21.064V12.804C80.2313 11.684 80.6233 10.7787 81.4073 10.088C82.1913 9.37867 83.6753 9.024 85.8593 9.024C88.0433 9.024 89.5366 9.37867 90.3393 10.088C91.1419 10.7787 91.5433 11.684 91.5433 12.804V21.064ZM80.5113 21.064C80.5113 22.1093 80.8846 22.9587 81.6313 23.612C82.3779 24.2467 83.7873 24.564 85.8593 24.564C87.9313 24.564 89.3499 24.2467 90.1153 23.612C90.8806 22.9587 91.2633 22.1093 91.2633 21.064V12.804C91.2633 11.7587 90.8806 10.9187 90.1153 10.284C89.3499 9.63067 87.9313 9.304 85.8593 9.304C83.7873 9.304 82.3779 9.63067 81.6313 10.284C80.8846 10.9187 80.5113 11.7587 80.5113 12.804V21.064ZM83.5633 20.7V13.168C83.5633 12.8133 83.7033 12.5147 83.9833 12.272C84.2633 12.0107 84.9073 11.88 85.9153 11.88C86.9233 11.88 87.5673 12.0107 87.8473 12.272C88.1273 12.5147 88.2673 12.8133 88.2673 13.168V20.7C88.2673 21.0733 88.1273 21.3907 87.8473 21.652C87.5673 21.8947 86.9233 22.016 85.9153 22.016C84.9073 22.016 84.2633 21.8947 83.9833 21.652C83.7033 21.3907 83.5633 21.0733 83.5633 20.7ZM83.8433 20.7C83.8433 20.8867 83.8806 21.0547 83.9553 21.204C84.0299 21.3347 84.1699 21.4467 84.3753 21.54V16.22C84.3753 16.0333 84.3379 15.8747 84.2633 15.744C84.1886 15.5947 84.0486 15.4827 83.8433 15.408V20.7ZM105.849 30.752C104.038 30.752 102.545 30.556 101.369 30.164C100.212 29.7907 99.3062 29.2867 98.6529 28.652C97.9995 28.0173 97.5422 27.2893 97.2809 26.468C97.0382 25.6467 96.9169 24.7973 96.9169 23.92V10.9C96.9169 10.6573 96.9449 10.452 97.0009 10.284C97.0755 10.116 97.1782 9.976 97.3089 9.864L100.921 6.812C101.014 6.73733 101.136 6.68133 101.285 6.644C101.453 6.588 101.63 6.56 101.817 6.56H106.213C106.661 6.56 106.988 6.66267 107.193 6.868C107.398 7.07333 107.501 7.4 107.501 7.848V20.616C107.501 20.784 107.529 20.9427 107.585 21.092C107.641 21.2227 107.762 21.3253 107.949 21.4V10.9C107.949 10.6573 107.977 10.452 108.033 10.284C108.089 10.116 108.173 9.98533 108.285 9.892L108.313 9.864L111.953 6.812C112.046 6.73733 112.168 6.68133 112.317 6.644C112.466 6.588 112.644 6.56 112.849 6.56H117.105C117.553 6.56 117.88 6.66267 118.085 6.868C118.29 7.07333 118.393 7.4 118.393 7.848V21.708C118.393 22.5667 118.272 23.36 118.029 24.088C117.786 24.816 117.348 25.4413 116.713 25.964L113.073 28.988C112.42 29.548 111.514 29.9773 110.357 30.276C109.2 30.5933 107.697 30.752 105.849 30.752ZM118.113 21.708V7.848C118.113 7.49333 118.029 7.24133 117.861 7.092C117.712 6.924 117.46 6.84 117.105 6.84H112.849C112.494 6.84 112.233 6.924 112.065 7.092C111.916 7.24133 111.841 7.49333 111.841 7.848V20.616C111.841 20.9893 111.701 21.3067 111.421 21.568C111.141 21.8107 110.506 21.932 109.517 21.932C108.546 21.932 107.921 21.8107 107.641 21.568C107.361 21.3067 107.221 20.9893 107.221 20.616V7.848C107.221 7.49333 107.137 7.24133 106.969 7.092C106.82 6.924 106.568 6.84 106.213 6.84H101.817C101.462 6.84 101.201 6.924 101.033 7.092C100.884 7.24133 100.809 7.49333 100.809 7.848V21.708C100.809 22.5667 100.93 23.3507 101.173 24.06C101.434 24.7507 101.882 25.348 102.517 25.852C103.17 26.3373 104.057 26.72 105.177 27C106.297 27.28 107.725 27.42 109.461 27.42C111.197 27.42 112.625 27.28 113.745 27C114.865 26.72 115.742 26.3373 116.377 25.852C117.03 25.348 117.478 24.7507 117.721 24.06C117.982 23.3507 118.113 22.5667 118.113 21.708ZM103.889 9.36H104.169V21.036C104.169 22.0813 104.533 22.9307 105.261 23.584C106.008 24.2187 107.417 24.536 109.489 24.536C111.561 24.536 112.97 24.2187 113.717 23.584C114.464 22.9307 114.837 22.0813 114.837 21.036V9.36H115.117V21.036C115.117 22.156 114.725 23.0707 113.941 23.78C113.157 24.4707 111.673 24.816 109.489 24.816C107.305 24.816 105.821 24.4707 105.037 23.78C104.272 23.0707 103.889 22.156 103.889 21.036V9.36ZM130.537 30.332H126.001C125.553 30.332 125.226 30.2293 125.021 30.024C124.815 29.8187 124.713 29.492 124.713 29.044V15.576H120.877C120.429 15.576 120.102 15.4733 119.897 15.268C119.691 15.0627 119.589 14.736 119.589 14.288V10.9C119.589 10.6573 119.617 10.452 119.673 10.284C119.747 10.116 119.85 9.976 119.981 9.864L123.593 6.812C123.686 6.73733 123.807 6.68133 123.957 6.644C124.125 6.588 124.302 6.56 124.489 6.56H139.273C139.721 6.56 140.047 6.66267 140.253 6.868C140.458 7.07333 140.561 7.4 140.561 7.848V11.236C140.561 11.4787 140.523 11.684 140.449 11.852C140.393 12.02 140.299 12.16 140.169 12.272L136.529 15.296C136.454 15.3707 136.333 15.436 136.165 15.492C136.015 15.548 135.847 15.576 135.661 15.576H135.437V25.992C135.437 26.2347 135.399 26.44 135.325 26.608C135.269 26.776 135.175 26.916 135.045 27.028L131.405 30.052C131.33 30.1267 131.209 30.192 131.041 30.248C130.891 30.304 130.723 30.332 130.537 30.332ZM134.149 27C134.503 27 134.755 26.9253 134.905 26.776C135.073 26.608 135.157 26.3467 135.157 25.992V12.244H139.273C139.627 12.244 139.879 12.1693 140.029 12.02C140.197 11.852 140.281 11.5907 140.281 11.236V7.848C140.281 7.49333 140.197 7.24133 140.029 7.092C139.879 6.924 139.627 6.84 139.273 6.84H124.489C124.134 6.84 123.873 6.924 123.705 7.092C123.555 7.24133 123.481 7.49333 123.481 7.848V11.236C123.481 11.5907 123.555 11.852 123.705 12.02C123.873 12.1693 124.134 12.244 124.489 12.244H128.605V25.992C128.605 26.3467 128.679 26.608 128.829 26.776C128.997 26.9253 129.258 27 129.613 27H134.149ZM131.741 24.48V9.64H126.001V9.36H137.761V9.64H132.021V24.48H131.741Z" fill="#2B6944"/>
</svg>
